<svg width="202" height="230" fill="none" xmlns="http://www.w3.org/2000/svg"><path d="M148.935 54.759c-3.377 16.275-8.054 42.967-8.487 46.672-.433 3.706-3.683 4.496-3.683.37s3.466-66.386 3.046-82.113c-.434-16.11-16.083-14.467-17.395-4.98-1.313 9.488-7.099 78.815-7.532 82.534-.433 3.718-3.823 3.438-3.823.14 0-3.299 2.549-69.047 2.179-85.144-.369-16.096-18.21-15.676-18.644-2.47-.267 8.29-4.995 80.482-5.645 85.41-.434 3.299-3.823 3.159-3.62-.827.179-4.967-.293-55.701-2.497-71.429-2.205-15.727-17.357-14.81-17.841-.776-.383 12.429-1.772 86.455-1.275 90.123.497 3.667-2.37 4.813-2.549.267-.178-5.017-2.23-21.954-13.393-32.104-11.164-10.15-21.308-3.298-20.39.407.918 3.706 8.551 22.184 8.997 35.377.446 13.193-2.549 39.707 17.217 63.954a46.068 46.068 0 0 0 10.921 9.894l-2.077 36.74a228.351 228.351 0 0 0 83.025-1.274s-4.384-18.771-7.506-35.351a27.519 27.519 0 0 0 2.077-1.859c7.379-7.425 14.12-25.47 17.166-51.499 3.046-26.03 5.339-58.07 7.391-76.752 2.154-19.777-12.361-21.228-15.662-5.31Z" fill="#3B42C4"/><path d="M173.849 174.12C185.981 167.524 202 146.69 202 121.615c0-40.687-45.215-69.314-100.994-69.314C45.227 52.3 0 80.928 0 121.615s45.215 73.67 101.006 73.67A129.197 129.197 0 0 0 154.95 183.9c8.207 11.462 21.767 14.008 34.408 10.468-8.003-5.106-15.19-12.123-15.509-20.248Z" fill="#00F6FF"/><mask id="a" style="mask-type:alpha" maskUnits="userSpaceOnUse" x="27" y="52" width="137" height="144"><path d="M163.909 66.64a111.356 111.356 0 0 0-15.993-6.89c-3.237 16.237-7.073 38.306-7.468 41.655-.434 3.719-3.683 4.496-3.683.37 0-2.369 1.147-23.89 2.039-44.775a143.555 143.555 0 0 0-20.046-3.706c-1.822 20.605-3.632 41.935-3.823 43.947-.433 3.719-3.823 3.439-3.823.14 0-1.859.828-23.317 1.465-44.66-3.797-.28-7.654-.42-11.571-.42-3.046 0-6.04.089-9.01.255-1.274 20.107-2.714 40.114-3.045 42.622-.434 3.299-3.824 3.158-3.62-.828.102-2.992 0-22.642-.624-41.209a142.824 142.824 0 0 0-20.39 3.579c-.446 24.705-.854 53.307-.573 55.548.471 3.68-2.37 4.814-2.55.268-.178-5.018-2.23-21.955-13.393-32.104-11.163-10.15-21.307-3.299-20.39.407.918 3.706 8.551 22.184 8.997 35.377.446 13.193-2.548 39.706 17.217 63.953a46.049 46.049 0 0 0 10.921 9.895v.255a134.703 134.703 0 0 0 36.524 4.966 133.968 133.968 0 0 0 36.956-5.094 28.232 28.232 0 0 0 2.014-1.808c7.379-7.424 14.12-25.469 17.166-51.499 2.701-23.215 4.817-51.206 6.703-70.244Z" fill="#F0F"/></mask><g mask="url(#a)"><path d="M46.753 35H9.765v36.988h36.988V35Z" fill="#C18900"/><path d="M83.742 35H46.754v36.988h36.988V35Z" fill="#7B34CE"/><path d="M120.749 35H83.761v36.988h36.988V35Z" fill="#C18900"/><path d="M157.736 35h-36.988v36.988h36.988V35ZM46.753 72.008H9.765v36.988h36.988V72.008Z" fill="#7B34CE"/><path d="M83.742 72.008H46.754v36.988h36.988V72.008Z" fill="#C18900"/><path d="M120.749 72.008H83.761v36.988h36.988V72.008Z" fill="#7B34CE"/><path d="M157.736 72.008h-36.988v36.988h36.988V72.008ZM46.753 108.996H9.765v36.988h36.988v-36.988Z" fill="#C18900"/><path d="M83.742 108.996H46.754v36.988h36.988v-36.988Z" fill="#7B34CE"/><path d="M120.749 108.996H83.761v36.988h36.988v-36.988Z" fill="#C18900"/><path d="M157.736 108.996h-36.988v36.988h36.988v-36.988ZM46.753 146.004H9.765v36.988h36.988v-36.988Z" fill="#7B34CE"/><path d="M83.742 146.004H46.754v36.988h36.988v-36.988Z" fill="#C18900"/><path d="M120.749 146.004H83.761v36.988h36.988v-36.988Z" fill="#7B34CE"/><path d="M157.736 146.004h-36.988v36.988h36.988v-36.988Z" fill="#C18900"/><path d="M157.759 182.995h36.988v-36.988h-36.988v36.988Z" fill="#7B34CE"/><path d="M157.759 146.008h36.988V109.02h-36.988v36.988Z" fill="#C18900"/><path d="M157.759 109h36.988V72.012h-36.988V109Z" fill="#7B34CE"/><path d="M157.759 72.017h36.988V35.028h-36.988v36.989Zm0 147.982h36.988v-36.988h-36.988v36.988Z" fill="#C18900"/><path d="M120.77 219.999h36.988v-36.988H120.77v36.988Z" fill="#7B34CE"/><path d="M83.766 219.999h36.988v-36.988H83.766v36.988Z" fill="#C18900"/><path d="M46.778 219.999h36.989v-36.988H46.778v36.988Z" fill="#7B34CE"/><path d="M46.753 182.987H9.765v36.989h36.988v-36.989Z" fill="#C18900"/></g></svg>